<svg xmlns="http://www.w3.org/2000/svg" viewBox="0 0 512 512">
  <defs>
    <radialGradient id="space" cx="50%" cy="44%" r="72%">
      <stop offset="0" stop-color="#10275a"/>
      <stop offset=".48" stop-color="#081839"/>
      <stop offset="1" stop-color="#050816"/>
    </radialGradient>
    <filter id="glow" x="-60%" y="-60%" width="220%" height="220%">
      <feGaussianBlur stdDeviation="7" result="blur"/>
      <feMerge><feMergeNode in="blur"/><feMergeNode in="SourceGraphic"/></feMerge>
    </filter>
    <filter id="softGlow" x="-80%" y="-80%" width="260%" height="260%">
      <feGaussianBlur stdDeviation="16"/>
    </filter>
    <radialGradient id="earthGrad" cx="34%" cy="28%" r="72%"><stop offset="0" stop-color="#E8FFFF"/><stop offset=".22" stop-color="#42E8FF"/><stop offset=".54" stop-color="#1B72FF"/><stop offset="1" stop-color="#081A68"/></radialGradient>
  </defs>
  <rect width="512" height="512" fill="url(#space)"/>
  
  <g opacity=".9">
    <circle cx="62" cy="84" r="1.6" fill="#fff"/>
    <circle cx="428" cy="96" r="1.8" fill="#42E8FF"/>
    <circle cx="454" cy="350" r="1.4" fill="#FFD166"/>
    <circle cx="108" cy="406" r="1.2" fill="#B9C6E8"/>
    <circle cx="378" cy="438" r="1.1" fill="#fff"/>
    <circle cx="180" cy="58" r="1.2" fill="#4F8CFF"/>
    <circle cx="332" cy="62" r="1.1" fill="#fff"/>
  </g>
  <ellipse cx="256" cy="258" rx="194" ry="58" fill="none" stroke="#42E8FF" stroke-width="2" opacity=".45" transform="rotate(-14 256 258)" filter="url(#glow)"/>
  <ellipse cx="256" cy="262" rx="162" ry="43" fill="none" stroke="#FFD166" stroke-width="1.4" opacity=".28" transform="rotate(-14 256 262)"/>
  <circle cx="256" cy="252" r="112" fill="url(#earthGrad)" filter="url(#glow)"/>
    <path d="M210 183c35 17 35 46 0 62-28 13-45 2-61 28 26 48 72 75 126 70 26-28 7-49 39-69 19-12 54-11 68-36-11-42-42-76-82-90-26 12-43 10-90 35z" fill="#49D29E" opacity=".78"/>
    <path d="M166 238c58 16 115 12 178-6M184 294c44 14 94 15 143 1" stroke="#fff" stroke-width="7" opacity=".22" fill="none"/>
    <circle cx="212" cy="192" r="26" fill="#fff" opacity=".18"/>
</svg>