<svg xmlns="http://www.w3.org/2000/svg" viewBox="0 0 512 512">
  <defs>
    <radialGradient id="space" cx="50%" cy="44%" r="72%">
      <stop offset="0" stop-color="#10275a"/>
      <stop offset=".48" stop-color="#081839"/>
      <stop offset="1" stop-color="#050816"/>
    </radialGradient>
    <filter id="glow" x="-60%" y="-60%" width="220%" height="220%">
      <feGaussianBlur stdDeviation="7" result="blur"/>
      <feMerge><feMergeNode in="blur"/><feMergeNode in="SourceGraphic"/></feMerge>
    </filter>
    <filter id="softGlow" x="-80%" y="-80%" width="260%" height="260%">
      <feGaussianBlur stdDeviation="16"/>
    </filter>
    
  </defs>
  <rect width="512" height="512" fill="url(#space)"/>
  
  <g opacity=".9">
    <circle cx="62" cy="84" r="1.6" fill="#fff"/>
    <circle cx="428" cy="96" r="1.8" fill="#42E8FF"/>
    <circle cx="454" cy="350" r="1.4" fill="#FFD166"/>
    <circle cx="108" cy="406" r="1.2" fill="#B9C6E8"/>
    <circle cx="378" cy="438" r="1.1" fill="#fff"/>
    <circle cx="180" cy="58" r="1.2" fill="#4F8CFF"/>
    <circle cx="332" cy="62" r="1.1" fill="#fff"/>
  </g>
  <ellipse cx="256" cy="258" rx="194" ry="58" fill="none" stroke="#42E8FF" stroke-width="2" opacity=".45" transform="rotate(-14 256 258)" filter="url(#glow)"/>
  <ellipse cx="256" cy="262" rx="162" ry="43" fill="none" stroke="#FFD166" stroke-width="1.4" opacity=".28" transform="rotate(-14 256 262)"/>
  <g filter="url(#glow)">
      <ellipse cx="256" cy="260" rx="178" ry="68" fill="none" stroke="#8B5CF6" stroke-width="4" opacity=".38" transform="rotate(-12 256 260)"/>
      <circle cx="406.0" cy="260.0" r="3" fill="#D8C7FF" opacity=".85"/><circle cx="401.6" cy="272.4" r="4" fill="#9EE8FF" opacity=".85"/><circle cx="388.8" cy="284.2" r="5" fill="#9EE8FF" opacity=".85"/><circle cx="368.3" cy="294.5" r="6" fill="#D8C7FF" opacity=".85"/><circle cx="341.2" cy="302.8" r="3" fill="#9EE8FF" opacity=".85"/><circle cx="309.2" cy="308.6" r="4" fill="#9EE8FF" opacity=".85"/><circle cx="274.1" cy="311.6" r="5" fill="#D8C7FF" opacity=".85"/><circle cx="237.9" cy="311.6" r="6" fill="#9EE8FF" opacity=".85"/><circle cx="202.8" cy="308.6" r="3" fill="#9EE8FF" opacity=".85"/><circle cx="170.8" cy="302.8" r="4" fill="#D8C7FF" opacity=".85"/><circle cx="143.7" cy="294.5" r="5" fill="#9EE8FF" opacity=".85"/><circle cx="123.2" cy="284.2" r="6" fill="#9EE8FF" opacity=".85"/><circle cx="110.4" cy="272.4" r="3" fill="#D8C7FF" opacity=".85"/><circle cx="106.0" cy="260.0" r="4" fill="#9EE8FF" opacity=".85"/><circle cx="110.4" cy="247.6" r="5" fill="#9EE8FF" opacity=".85"/><circle cx="123.2" cy="235.8" r="6" fill="#D8C7FF" opacity=".85"/><circle cx="143.7" cy="225.5" r="3" fill="#9EE8FF" opacity=".85"/><circle cx="170.8" cy="217.2" r="4" fill="#9EE8FF" opacity=".85"/><circle cx="202.8" cy="211.4" r="5" fill="#D8C7FF" opacity=".85"/><circle cx="237.9" cy="208.4" r="6" fill="#9EE8FF" opacity=".85"/><circle cx="274.1" cy="208.4" r="3" fill="#9EE8FF" opacity=".85"/><circle cx="309.2" cy="211.4" r="4" fill="#D8C7FF" opacity=".85"/><circle cx="341.2" cy="217.2" r="5" fill="#9EE8FF" opacity=".85"/><circle cx="368.3" cy="225.5" r="6" fill="#9EE8FF" opacity=".85"/><circle cx="388.8" cy="235.8" r="3" fill="#D8C7FF" opacity=".85"/><circle cx="401.6" cy="247.6" r="4" fill="#9EE8FF" opacity=".85"/>
      <circle cx="248" cy="250" r="36" fill="#8FEFFF" opacity=".28"/>
    </g>
</svg>