<svg xmlns="http://www.w3.org/2000/svg" viewBox="0 0 512 512">
  <defs>
    <radialGradient id="space" cx="50%" cy="44%" r="72%">
      <stop offset="0" stop-color="#10275a"/>
      <stop offset=".48" stop-color="#081839"/>
      <stop offset="1" stop-color="#050816"/>
    </radialGradient>
    <filter id="glow" x="-60%" y="-60%" width="220%" height="220%">
      <feGaussianBlur stdDeviation="7" result="blur"/>
      <feMerge><feMergeNode in="blur"/><feMergeNode in="SourceGraphic"/></feMerge>
    </filter>
    <filter id="softGlow" x="-80%" y="-80%" width="260%" height="260%">
      <feGaussianBlur stdDeviation="16"/>
    </filter>
    <radialGradient id="neptuneGrad" cx="34%" cy="28%" r="72%"><stop offset="0" stop-color="#CBF7FF"/><stop offset=".28" stop-color="#2F95FF"/><stop offset=".68" stop-color="#1239B3"/><stop offset="1" stop-color="#06113E"/></radialGradient>
  </defs>
  <rect width="512" height="512" fill="url(#space)"/>
  
  <g opacity=".9">
    <circle cx="62" cy="84" r="1.6" fill="#fff"/>
    <circle cx="428" cy="96" r="1.8" fill="#42E8FF"/>
    <circle cx="454" cy="350" r="1.4" fill="#FFD166"/>
    <circle cx="108" cy="406" r="1.2" fill="#B9C6E8"/>
    <circle cx="378" cy="438" r="1.1" fill="#fff"/>
    <circle cx="180" cy="58" r="1.2" fill="#4F8CFF"/>
    <circle cx="332" cy="62" r="1.1" fill="#fff"/>
  </g>
  <ellipse cx="256" cy="258" rx="194" ry="58" fill="none" stroke="#42E8FF" stroke-width="2" opacity=".45" transform="rotate(-14 256 258)" filter="url(#glow)"/>
  <ellipse cx="256" cy="262" rx="162" ry="43" fill="none" stroke="#FFD166" stroke-width="1.4" opacity=".28" transform="rotate(-14 256 262)"/>
  <circle cx="256" cy="252" r="113" fill="url(#neptuneGrad)" filter="url(#glow)"/>
    <path d="M172 242c54-24 117-27 172-3" stroke="#9EE8FF" stroke-width="6" opacity=".22" fill="none"/>
    <path d="M192 300c46 15 98 11 142-10" stroke="#061B6B" stroke-width="11" opacity=".28" fill="none"/>
    <circle cx="214" cy="194" r="24" fill="#fff" opacity=".16"/>
</svg>