<svg xmlns="http://www.w3.org/2000/svg" viewBox="0 0 512 512">
  <defs>
    <radialGradient id="space" cx="50%" cy="44%" r="72%">
      <stop offset="0" stop-color="#10275a"/>
      <stop offset=".48" stop-color="#081839"/>
      <stop offset="1" stop-color="#050816"/>
    </radialGradient>
    <filter id="glow" x="-60%" y="-60%" width="220%" height="220%">
      <feGaussianBlur stdDeviation="7" result="blur"/>
      <feMerge><feMergeNode in="blur"/><feMergeNode in="SourceGraphic"/></feMerge>
    </filter>
    <filter id="softGlow" x="-80%" y="-80%" width="260%" height="260%">
      <feGaussianBlur stdDeviation="16"/>
    </filter>
    
  </defs>
  <rect width="512" height="512" fill="url(#space)"/>
  
  <g opacity=".9">
    <circle cx="62" cy="84" r="1.6" fill="#fff"/>
    <circle cx="428" cy="96" r="1.8" fill="#42E8FF"/>
    <circle cx="454" cy="350" r="1.4" fill="#FFD166"/>
    <circle cx="108" cy="406" r="1.2" fill="#B9C6E8"/>
    <circle cx="378" cy="438" r="1.1" fill="#fff"/>
    <circle cx="180" cy="58" r="1.2" fill="#4F8CFF"/>
    <circle cx="332" cy="62" r="1.1" fill="#fff"/>
  </g>
  <ellipse cx="256" cy="258" rx="194" ry="58" fill="none" stroke="#42E8FF" stroke-width="2" opacity=".45" transform="rotate(-14 256 258)" filter="url(#glow)"/>
  <ellipse cx="256" cy="262" rx="162" ry="43" fill="none" stroke="#FFD166" stroke-width="1.4" opacity=".28" transform="rotate(-14 256 262)"/>
  <g filter="url(#glow)">
      <circle cx="256" cy="256" r="154" fill="none" stroke="#8B5CF6" stroke-width="4" opacity=".28"/>
      <circle cx="256" cy="256" r="104" fill="none" stroke="#42E8FF" stroke-width="2" opacity=".2"/>
      <circle cx="310.0" cy="256.0" r="1.2" fill="#FFD166" opacity="0.35"/><circle cx="212.4" cy="296.0" r="1.8" fill="#B9C6E8" opacity="0.43"/><circle cx="261.6" cy="191.8" r="2.3" fill="#B9C6E8" opacity="0.51"/><circle cx="298.4" cy="311.2" r="2.9" fill="#B9C6E8" opacity="0.59"/><circle cx="182.3" cy="243.0" r="1.2" fill="#B9C6E8" opacity="0.67"/><circle cx="323.5" cy="213.0" r="1.8" fill="#FFD166" opacity="0.75"/><circle cx="233.9" cy="338.3" r="2.3" fill="#B9C6E8" opacity="0.83"/><circle cx="214.3" cy="175.8" r="2.9" fill="#B9C6E8" opacity="0.35"/><circle cx="345.8" cy="288.7" r="1.2" fill="#B9C6E8" opacity="0.43"/><circle cx="162.9" cy="294.6" r="1.8" fill="#B9C6E8" opacity="0.51"/><circle cx="300.8" cy="159.9" r="2.3" fill="#FFD166" opacity="0.59"/><circle cx="289.4" cy="362.1" r="2.9" fill="#B9C6E8" opacity="0.67"/><circle cx="155.2" cy="197.8" r="1.2" fill="#B9C6E8" opacity="0.75"/><circle cx="374.7" cy="229.7" r="1.8" fill="#B9C6E8" opacity="0.83"/><circle cx="183.3" cy="359.9" r="2.3" fill="#B9C6E8" opacity="0.35"/><circle cx="238.8" cy="125.1" r="2.9" fill="#FFD166" opacity="0.43"/><circle cx="361.1" cy="344.2" r="1.2" fill="#B9C6E8" opacity="0.51"/><circle cx="113.7" cy="262.2" r="1.8" fill="#B9C6E8" opacity="0.59"/><circle cx="360.4" cy="151.6" r="2.3" fill="#B9C6E8" opacity="0.67"/><circle cx="249.3" cy="408.7" r="2.9" fill="#B9C6E8" opacity="0.75"/><circle cx="154.4" cy="135.0" r="1.2" fill="#FFD166" opacity="0.83"/><circle cx="417.8" cy="277.3" r="1.8" fill="#B9C6E8" opacity="0.35"/><circle cx="118.1" cy="352.6" r="2.3" fill="#B9C6E8" opacity="0.43"/><circle cx="267.7" cy="203.3" r="2.9" fill="#B9C6E8" opacity="0.51"/><circle cx="285.6" cy="307.3" r="1.2" fill="#B9C6E8" opacity="0.59"/><circle cx="194.6" cy="236.6" r="1.8" fill="#FFD166" opacity="0.67"/><circle cx="319.1" cy="226.6" r="2.3" fill="#B9C6E8" opacity="0.75"/><circle cx="227.4" cy="325.1" r="2.9" fill="#B9C6E8" opacity="0.83"/><circle cx="228.6" cy="180.8" r="1.2" fill="#B9C6E8" opacity="0.35"/><circle cx="331.6" cy="295.3" r="1.8" fill="#B9C6E8" opacity="0.43"/><circle cx="168.7" cy="279.4" r="2.3" fill="#FFD166" opacity="0.51"/><circle cx="307.4" cy="175.4" r="2.9" fill="#B9C6E8" opacity="0.59"/><circle cx="273.5" cy="355.3" r="1.2" fill="#B9C6E8" opacity="0.67"/><circle cx="171.9" cy="191.5" r="1.8" fill="#B9C6E8" opacity="0.75"/><circle cx="366.8" cy="246.3" r="2.3" fill="#B9C6E8" opacity="0.83"/><circle cx="177.4" cy="341.8" r="2.9" fill="#FFD166" opacity="0.35"/><circle cx="256.0" cy="134.4" r="1.2" fill="#B9C6E8" opacity="0.43"/><circle cx="341.7" cy="349.5" r="1.8" fill="#B9C6E8" opacity="0.51"/><circle cx="124.5" cy="244.5" r="2.3" fill="#B9C6E8" opacity="0.59"/><circle cx="364.8" cy="172.5" r="2.9" fill="#B9C6E8" opacity="0.67"/><circle cx="231.3" cy="396.2" r="1.2" fill="#FFD166" opacity="0.75"/><circle cx="176.7" cy="131.5" r="1.8" fill="#B9C6E8" opacity="0.83"/><circle cx="403.6" cy="295.5" r="2.3" fill="#B9C6E8" opacity="0.35"/><circle cx="115.9" cy="329.0" r="2.9" fill="#B9C6E8" opacity="0.43"/><circle cx="311.8" cy="102.6" r="1.2" fill="#B9C6E8" opacity="0.51"/><circle cx="320.4" cy="411.6" r="1.8" fill="#FFD166" opacity="0.59"/><circle cx="207.1" cy="233.2" r="2.3" fill="#B9C6E8" opacity="0.67"/><circle cx="312.5" cy="238.2" r="2.9" fill="#B9C6E8" opacity="0.75"/><circle cx="223.8" cy="311.8" r="1.2" fill="#B9C6E8" opacity="0.83"/><circle cx="240.9" cy="188.0" r="1.8" fill="#B9C6E8" opacity="0.35"/><circle cx="317.3" cy="298.9" r="2.3" fill="#FFD166" opacity="0.43"/><circle cx="176.7" cy="266.4" r="2.9" fill="#B9C6E8" opacity="0.51"/><circle cx="310.8" cy="190.7" r="1.2" fill="#B9C6E8" opacity="0.59"/><circle cx="259.9" cy="346.3" r="1.8" fill="#B9C6E8" opacity="0.67"/><circle cx="188.4" cy="188.4" r="2.3" fill="#B9C6E8" opacity="0.75"/><circle cx="356.7" cy="260.4" r="2.9" fill="#FFD166" opacity="0.83"/><circle cx="174.8" cy="324.1" r="1.2" fill="#B9C6E8" opacity="0.35"/><circle cx="270.5" cy="145.8" r="1.8" fill="#B9C6E8" opacity="0.43"/><circle cx="322.8" cy="351.3" r="2.3" fill="#B9C6E8" opacity="0.51"/><circle cx="137.3" cy="229.7" r="2.9" fill="#B9C6E8" opacity="0.59"/><circle cx="365.8" cy="192.6" r="1.2" fill="#FFD166" opacity="0.67"/><circle cx="216.3" cy="381.9" r="1.8" fill="#B9C6E8" opacity="0.75"/><circle cx="198.0" cy="131.7" r="2.3" fill="#B9C6E8" opacity="0.83"/><circle cx="387.6" cy="310.5" r="2.9" fill="#B9C6E8" opacity="0.35"/><circle cx="117.3" cy="306.5" r="1.2" fill="#B9C6E8" opacity="0.43"/><circle cx="326.6" cy="120.5" r="1.8" fill="#FFD166" opacity="0.51"/><circle cx="296.9" cy="408.6" r="2.3" fill="#B9C6E8" opacity="0.59"/><circle cx="118.4" cy="168.3" r="2.9" fill="#B9C6E8" opacity="0.67"/><circle cx="421.8" cy="226.8" r="1.2" fill="#B9C6E8" opacity="0.75"/><circle cx="223.1" cy="298.8" r="1.8" fill="#B9C6E8" opacity="0.83"/>
    </g>
</svg>