<svg xmlns="http://www.w3.org/2000/svg" viewBox="0 0 512 512">
  <defs>
    <radialGradient id="space" cx="50%" cy="44%" r="72%">
      <stop offset="0" stop-color="#10275a"/>
      <stop offset=".48" stop-color="#081839"/>
      <stop offset="1" stop-color="#050816"/>
    </radialGradient>
    <filter id="glow" x="-60%" y="-60%" width="220%" height="220%">
      <feGaussianBlur stdDeviation="7" result="blur"/>
      <feMerge><feMergeNode in="blur"/><feMergeNode in="SourceGraphic"/></feMerge>
    </filter>
    <filter id="softGlow" x="-80%" y="-80%" width="260%" height="260%">
      <feGaussianBlur stdDeviation="16"/>
    </filter>
    <radialGradient id="saturnGrad" cx="36%" cy="28%" r="72%"><stop offset="0" stop-color="#FFF5D6"/><stop offset=".34" stop-color="#D8A76C"/><stop offset=".74" stop-color="#8E6D55"/><stop offset="1" stop-color="#2E2535"/></radialGradient>
  </defs>
  <rect width="512" height="512" fill="url(#space)"/>
  
  <g opacity=".9">
    <circle cx="62" cy="84" r="1.6" fill="#fff"/>
    <circle cx="428" cy="96" r="1.8" fill="#42E8FF"/>
    <circle cx="454" cy="350" r="1.4" fill="#FFD166"/>
    <circle cx="108" cy="406" r="1.2" fill="#B9C6E8"/>
    <circle cx="378" cy="438" r="1.1" fill="#fff"/>
    <circle cx="180" cy="58" r="1.2" fill="#4F8CFF"/>
    <circle cx="332" cy="62" r="1.1" fill="#fff"/>
  </g>
  <ellipse cx="256" cy="258" rx="194" ry="58" fill="none" stroke="#42E8FF" stroke-width="2" opacity=".45" transform="rotate(-14 256 258)" filter="url(#glow)"/>
  <ellipse cx="256" cy="262" rx="162" ry="43" fill="none" stroke="#FFD166" stroke-width="1.4" opacity=".28" transform="rotate(-14 256 262)"/>
  <ellipse cx="256" cy="264" rx="188" ry="52" fill="none" stroke="#FFD166" stroke-width="10" opacity=".7" transform="rotate(-13 256 264)" filter="url(#glow)"/>
    <ellipse cx="256" cy="264" rx="150" ry="36" fill="none" stroke="#EAFBFF" stroke-width="3" opacity=".42" transform="rotate(-13 256 264)"/>
    <circle cx="256" cy="252" r="108" fill="url(#saturnGrad)" filter="url(#glow)"/>
    <path d="M168 230c58 16 117 15 176-6M176 282c62 11 119 9 170-9" stroke="#6B4A30" stroke-width="8" opacity=".32" fill="none"/>
</svg>